<svg width="24" height="24" viewBox="0 0 24 24" fill="none" xmlns="http://www.w3.org/2000/svg">
<path d="M6.39966 2.80566C6.5872 2.75281 6.80091 2.85919 6.85474 3.07227L7.4436 5.27148L12.0774 4.05664L12.1555 4.04395C12.3365 4.03202 12.5074 4.13525 12.5549 4.32422L13.5374 7.95996L17.1292 7L17.2073 6.9873C17.3881 6.97535 17.5589 7.07805 17.6067 7.2666L19.4475 14.1016L21.092 13.6738L21.1702 13.6611C21.3512 13.6492 21.522 13.7525 21.5696 13.9414L22.01 15.5635L22.0354 15.6816C22.132 16.2718 21.7797 16.8748 21.1858 16.9902L21.1868 16.9912L15.2454 18.5566C15.3193 19.7233 14.5685 20.8112 13.3997 21.1152L13.4006 21.1162C12.2319 21.4434 11.0179 20.8695 10.51 19.8281L9.53052 20.0967H9.52954C9.32225 20.1484 9.10663 20.0456 9.052 19.8301L5.05591 5.11523L3.15649 5.58984C2.66736 5.71205 2.13115 5.41928 1.98462 4.90625C1.83739 4.39065 2.15676 3.87833 2.66724 3.73242L2.66919 3.73145L6.39966 2.80469V2.80566ZM14.428 18.4131C14.2482 17.5141 13.2797 16.8605 12.2883 17.1309H12.2874C11.3421 17.3787 10.8023 18.346 11.095 19.292C11.3647 20.1688 12.2865 20.6653 13.1877 20.418L13.3459 20.3643C14.1164 20.0644 14.6175 19.2778 14.428 18.4141V18.4131ZM2.85571 4.45508C2.73879 4.49238 2.70008 4.60498 2.72681 4.70703C2.74019 4.75766 2.76913 4.80104 2.80884 4.82715C2.84747 4.85255 2.9 4.86405 2.96802 4.84473H2.96997L5.24146 4.28809L5.25317 4.28516V4.28711H5.32251C5.46633 4.28711 5.60335 4.38907 5.67017 4.51855L5.69458 4.57617L5.69556 4.57812V4.5791L9.69165 19.2705L10.2717 19.1289C10.1773 18.4611 10.356 17.7402 10.8079 17.1953L10.3411 17.3164H10.3401C10.1326 17.368 9.91683 17.2648 9.86255 17.0488L6.21411 3.60938L2.85571 4.45508ZM13.6301 16.4619C14.2777 16.701 14.8126 17.2181 15.0618 17.8564L20.9758 16.293C21.1743 16.2387 21.2944 16.0582 21.2795 15.8604L21.2649 15.7744L20.9299 14.5244C18.6528 15.1331 15.8601 15.8705 13.6301 16.4619ZM8.74438 10.0264L10.5022 16.4873L18.7249 14.3125L16.967 7.84961L8.74438 10.0264ZM7.65454 6.0166L8.53247 9.28027L12.7922 8.14844L11.9153 4.88379L7.65454 6.0166Z" fill="#5D6679" stroke="#5D6679" stroke-width="0.1"/>
</svg>
